<?xml version="1.0" encoding="utf-8"?>
<!-- Generator: Adobe Illustrator 17.1.0, SVG Export Plug-In . SVG Version: 6.00 Build 0)  -->
<!DOCTYPE svg PUBLIC "-//W3C//DTD SVG 1.1//EN" "http://www.w3.org/Graphics/SVG/1.1/DTD/svg11.dtd">
<svg version="1.1" id="Layer_1" xmlns="http://www.w3.org/2000/svg" xmlns:xlink="http://www.w3.org/1999/xlink" x="0px" y="0px"
	 viewBox="172 0 164 20" enable-background="new 172 0 164 20" xml:space="preserve">
<g>
	<g>
		<path fill="#04346E" d="M269.7,4c0,1.6-0.2,1.8-1.9,1.8c-1.6,0-1.9-0.3-1.8-1.9c0-1.5,0.3-1.8,1.9-1.8
			C269.5,2.2,269.7,2.4,269.7,4z"/>
		<path fill="#04346E" d="M317.3,4c0,1.6-0.2,1.8-1.9,1.8c-1.6,0-1.9-0.3-1.8-1.9c0-1.5,0.3-1.8,1.9-1.8
			C317.1,2.2,317.3,2.4,317.3,4z"/>
		<path fill="#04346E" d="M223.7,7.6c0.8-0.7,1.6-1.2,2.7-1.3c1.7-0.1,3.1,0.5,4.2,2c1.6,2.2,1.4,6-0.5,8c-1.7,1.8-4.5,2-6.3,0.3
			c-0.1-0.1-0.1-0.1-0.2-0.2c-0.2,0.9-0.5,1.1-1.4,1.1c-0.1,0-0.2,0-0.3,0c-1.5,0-1.7-0.2-1.7-1.7c0-4,0-8,0-12
			c0-1.2,0.3-1.5,1.5-1.5c2.1,0,2.1,0.1,2.1,2.1C223.7,5.5,223.7,6.5,223.7,7.6z M223.6,12c0,0.5,0.1,0.9,0.2,1.3
			c0.3,0.8,0.8,1.3,1.7,1.4c0.8,0.1,1.5-0.2,2-1c0.6-1,0.6-2,0.2-3c-0.2-0.6-0.6-1.2-1.4-1.4C224.7,9.1,223.6,10.2,223.6,12z"/>
		<path fill="#04346E" d="M200.8,2c1.1,0.1,2.4,0.3,3.5,0.9c1,0.5,1.2,1,0.7,2c-0.8,1.7-0.8,1.7-2.5,0.9c-0.8-0.3-1.5-0.5-2.3-0.4
			c-0.5,0.1-1,0.3-1.2,0.9c-0.1,0.6,0.2,1.1,0.7,1.3c0.9,0.4,1.8,0.8,2.6,1.2c0.2,0.1,0.5,0.2,0.7,0.3c2,1.1,2.8,2.5,2.6,4.6
			c-0.3,2-1.7,3.5-3.8,3.9c-2.2,0.4-4.2,0-6.1-1.2c-0.8-0.5-0.9-1-0.4-1.8c1.1-1.7,1.1-1.7,2.9-0.8c0.8,0.4,1.6,0.6,2.5,0.5
			c0.6,0,1.1-0.2,1.2-0.8c0.1-0.6-0.2-1.1-0.8-1.4c-0.7-0.4-1.5-0.7-2.2-1c-0.5-0.2-1-0.5-1.4-0.7c-1.6-0.9-2.4-2.3-2.2-4.1
			c0.2-1.9,1.3-3.2,3.1-3.8C199.1,2.2,199.9,2,200.8,2z"/>
		<path fill="#04346E" d="M282.1,17.8c-1.6-0.1-3.2-0.4-4.6-1.4c-0.8-0.5-0.9-1-0.3-1.8c1.1-1.7,1.1-1.7,2.9-0.8
			c0.8,0.4,1.6,0.6,2.5,0.5c0.6,0,1.1-0.2,1.2-0.9c0.1-0.6-0.2-1.1-0.7-1.3c-0.8-0.4-1.6-0.7-2.4-1.1c-0.4-0.2-0.9-0.4-1.3-0.6
			c-1.5-0.9-2.5-2.2-2.3-4.1c0.1-2,1.2-3.2,3-3.9c2.1-0.8,4.2-0.5,6.2,0.5c0.9,0.5,1,1,0.5,1.9c-0.9,1.7-0.9,1.7-2.6,0.9
			c-0.7-0.3-1.4-0.4-2.2-0.3c-0.6,0.1-1.1,0.2-1.2,0.9c-0.1,0.6,0.2,1.1,0.8,1.4c1.1,0.5,2.2,0.9,3.2,1.4c2.1,1.1,2.9,2.6,2.6,4.7
			c-0.4,2.3-2.3,3.8-4.8,3.9C282.4,17.8,282.3,17.8,282.1,17.8z"/>
		<path fill="#04346E" d="M294.6,17.8c-3.4,0-5.9-2.1-6.2-5.1c-0.3-3,1.8-5.7,4.7-6.2c2.2-0.4,4.3,0,6,1.6c1.6,1.6,2.1,3.6,1.4,5.7
			c-0.7,2.2-2.3,3.4-4.5,3.9C295.5,17.7,295,17.8,294.6,17.8z M297.1,12.1c0-1.6-1.1-2.7-2.5-2.7c-1.4,0-2.5,1.2-2.5,2.8
			c0,1.5,1.1,2.7,2.5,2.6C296.1,14.7,297.1,13.6,297.1,12.1z"/>
		<path fill="#04346E" d="M214.3,15.9c-1.3,1.9-3.4,2.2-5.1,1.5c-1.2-0.4-1.8-1.4-2-2.6c-0.2-1.3-0.1-2.6-0.1-3.9c0-1.1,0-2.1,0-3.2
			c0-0.9,0.4-1.2,1.2-1.2c2.3-0.1,2.4,0,2.4,2.3c0,1.3,0,2.7,0,4c0,1.2,0.8,1.7,1.9,1.3c0.9-0.3,1.3-1,1.5-1.9
			c0.2-1.4,0.1-2.8,0.1-4.2c0-1.3,0.3-1.5,1.5-1.5c2,0,2.1,0.1,2.1,2.1c0,2.4,0,4.7,0,7.1c0,1.5-0.2,1.7-1.7,1.7c0,0-0.1,0-0.1,0
			C214.6,17.5,214.4,17.3,214.3,15.9z"/>
		<path fill="#04346E" d="M240.4,15.9c-1.2,1.7-2.7,2.1-4.5,1.8c-1.5-0.3-2.4-1.2-2.7-2.7c-0.2-1.3-0.1-2.6-0.1-3.9c0-1,0-2.1,0-3.1
			c0-1,0.4-1.3,1.3-1.3c2.3,0,2.3,0,2.3,2.3c0,1.4,0,2.7,0,4.1c0,1.2,0.7,1.7,1.9,1.3c0.9-0.3,1.4-1,1.5-2c0.2-1.4,0.1-2.8,0.1-4.2
			c0-1.2,0.3-1.5,1.5-1.5c2.1,0,2.2,0.1,2.2,2.1c0,2.4,0,4.7,0,7.1c0,1.4-0.3,1.7-1.7,1.7c-0.1,0-0.2,0-0.3,0
			C240.7,17.5,240.5,17.3,240.4,15.9z"/>
		<path fill="#04346E" d="M325.4,16.1c-0.9,1.1-2,1.7-3.4,1.6c-2.2-0.1-3.7-1.9-3.3-4c0.2-1.1,0.9-1.7,1.8-2.2
			c1.2-0.6,2.6-0.8,4-0.9c0.2,0,0.5,0.2,0.6-0.2c0.1-0.3,0-0.6-0.3-0.8c-0.4-0.4-0.9-0.4-1.4-0.4c-0.6,0-1.3,0.2-1.8,0.4
			c-0.9,0.4-1.3,0.2-1.8-0.9c-0.4-0.9-0.3-1.4,0.6-1.8c1.8-0.8,3.6-1.1,5.4-0.5c1.7,0.5,2.9,1.9,2.9,3.8c0.1,2,0,4,0,5.9
			c0,0.8-0.4,1.2-1.2,1.2c-0.2,0-0.3,0-0.5,0C325.9,17.5,325.8,17.4,325.4,16.1z M324.6,12.8c-0.6,0-1.2,0.1-1.7,0.4
			c-0.4,0.2-0.6,0.6-0.5,1.1c0.1,0.4,0.4,0.6,0.8,0.6c0.9,0.1,1.7-0.5,2-1.4C325.3,13,325.3,12.7,324.6,12.8z"/>
		<path fill="#04346E" d="M260.6,16.1c-0.8,0.8-1.5,1.4-2.5,1.6c-2.5,0.5-4.6-1.4-4.2-3.8c0.2-1.1,0.8-1.8,1.8-2.3
			c1.3-0.7,2.7-0.8,4.1-0.9c0.2,0,0.4,0.1,0.5-0.1c0.1-0.2,0-0.5-0.1-0.7c-0.2-0.3-0.5-0.5-0.9-0.5c-0.8-0.1-1.6,0-2.4,0.3
			c-1,0.4-1.3,0.2-1.9-0.9c-0.4-0.9-0.2-1.4,0.7-1.8c1.7-0.7,3.5-1,5.4-0.5c1.7,0.5,2.9,1.9,2.9,3.8c0.1,2,0,3.9,0,5.9
			c0,0.9-0.4,1.2-1.3,1.3c-0.2,0-0.4,0-0.6,0C261,17.5,260.7,17.2,260.6,16.1z M259.9,12.8c-0.8,0.1-1.5,0.2-2,0.5
			c-0.4,0.2-0.6,0.6-0.5,1c0.1,0.4,0.4,0.6,0.8,0.7c0.9,0.2,1.8-0.4,2-1.5C260.5,13,260.4,12.7,259.9,12.8z"/>
		<path fill="#04346E" d="M307.7,17.8c-2.4-0.1-4.4-1-5.4-3.3c-1-2.3-0.7-4.5,1-6.4c1.8-2,5.7-2.4,8-0.8c0.6,0.4,0.7,0.8,0.4,1.4
			c-0.7,1.3-0.9,1.4-2.3,0.9c-1.4-0.6-2.9-0.1-3.6,1.1c-0.6,1.1-0.3,2.7,0.7,3.5c0.8,0.7,1.8,0.7,2.7,0.4c0.4-0.1,0.7-0.3,1-0.5
			c0.7-0.4,1.1-0.3,1.5,0.4c0.1,0.1,0.2,0.3,0.2,0.4c0.4,0.9,0.3,1.4-0.5,1.8C310.3,17.5,309,17.8,307.7,17.8z"/>
		<path fill="#04346E" d="M246.8,12.1c0-0.8,0-1.4,0-2c0-0.3-0.1-0.5-0.4-0.5c-0.8-0.1-1.1-0.5-1-1.6c0-0.8,0.3-1.2,1.1-1.2
			c0.4,0,0.5-0.1,0.5-0.5c0-0.5,0-1.1,0-1.6c0-0.6,0.3-1,1-1c0.5,0,1-0.1,1.5,0c0.8,0.1,1.1,0.4,1.1,1.2c0,0.5,0,1,0,1.5
			c0,0.4,0.1,0.5,0.5,0.5c0.1,0,0.2,0,0.3,0c1.6-0.1,1.7,0.8,1.5,2.1c-0.1,0.6-0.7,0.7-1.2,0.7c-1,0-1,0-1,1c0,0.8,0,1.5,0,2.3
			c0,0.9,0.3,1.3,1.2,1.5c0.4,0.1,1,0.1,1.1,0.7c0.2,0.7,0.3,1.5-0.1,2.2c-0.1,0.2-0.3,0.3-0.5,0.3c-1.9,0.6-4.5-0.7-5.1-2.5
			C246.7,14,246.8,13,246.8,12.1z"/>
		<path fill="#04346E" d="M334.5,8.5c0,1.6,0,3.2,0,4.7c0,0.6,0.1,1.2,0.9,1.3c0,0,0.1,0,0.1,0c0.7,0.6,0.4,1.4,0.4,2.2
			c0,0.6-0.4,0.9-1,0.9c-2.4,0-3.7-0.8-4-3.1c-0.1-0.4-0.1-0.8-0.1-1.1c0-3.2,0-6.4,0-9.6c0-1.3,0.3-1.6,1.5-1.6
			c2.1,0,2.1,0.1,2.1,2.1C334.5,5.8,334.5,7.2,334.5,8.5z"/>
		<path fill="#04346E" d="M269.6,12.1c0,1.4,0,2.7,0,4.1c0,1-0.4,1.3-1.3,1.3c-2.3,0-2.3,0-2.3-2.3c0-2.4,0-4.8,0-7.1
			c0-1.1,0.3-1.5,1.5-1.5c2.1,0,2.2,0.1,2.2,2.2C269.6,9.9,269.6,11,269.6,12.1z"/>
		<path fill="#04346E" d="M313.6,12c0-1.4,0-2.7,0-4.1c0-1,0.3-1.3,1.3-1.3c2.3,0,2.3,0,2.3,2.3c0,2.4,0,4.8,0,7.1
			c0,1.2-0.3,1.5-1.5,1.5c-2.1,0-2.2,0-2.2-2.1C313.6,14.2,313.6,13.1,313.6,12z"/>
	</g>
	<path fill="#078DD0" d="M182.6,15.4c0-2.7-0.1-2.7-2.8-2.7c-0.2,0-2.5,0.2-2.5-2.3c0-0.6,0-1.1,0-1.7c-0.1-0.9-0.2-1.2-1.2-1.3
		c-0.4-0.1-0.9-0.1-1.6-0.1c0,0,0,0,0,0c-0.1,0-0.3,0-0.4,0c-1.6,0-2.1,0.3-2.1,1.4c0,0.4,0,0.8,0,1.2c0,2.7,0.1,2.7,2.8,2.7
		c2.2,0,2.5,1.3,2.5,2.3c0,0.6,0,1.1,0,1.7c0.1,0.9,0.2,1.2,1.2,1.3c0.4,0.1,0.9,0.1,1.6,0.1c0,0,0,0,0,0c0.1,0,0.3,0,0.4,0
		c1.6,0,2.1-0.3,2.1-1.4C182.7,16.2,182.6,15.8,182.6,15.4z"/>
	<path fill="#04346E" d="M187.9,10.1c0-2.7-0.1-2.7-2.8-2.7c-0.2,0-2.5,0.2-2.5-2.3c0-0.6,0-1.1,0-1.7c-0.1-0.9-0.2-1.2-1.2-1.3
		C181.1,2,180.6,2,179.9,2c0,0,0,0,0,0c-0.1,0-0.3,0-0.4,0c-1.6,0-2.1,0.3-2.1,1.4c0,0.4,0,0.8,0,1.2c0,2.7,0.1,2.7,2.8,2.7
		c2.2,0,2.5,1.3,2.5,2.3c0,0.6,0,1.1,0,1.7c0.1,0.9,0.2,1.2,1.2,1.3c0.4,0.1,0.9,0.1,1.6,0.1c0,0,0,0,0,0c0.1,0,0.3,0,0.4,0
		c1.6,0,2.1-0.3,2.1-1.4C187.9,10.9,187.9,10.5,187.9,10.1z"/>
</g>
</svg>
